# xmcd CD database file
#
# Track frame offsets:
#	150
#	10603
#	28525
#	40676
#	53092
#	67689
#	80881
#	95903
#	112007
#	124661
#	142569
#	156678
#	168924
#	181854
#
# Disc length: 2550 seconds
#
# Revision: 0
# Processed by: cddbd v1.5.2PL0 Copyright (c) Steve Scherf et al.
# Submitted via: CDex 1.51
#
DISCID=ad09f40e
DTITLE=Die Fidelen Moelltaler - Musik ist mein Zuhause
DYEAR=2007
DGENRE=Volkstümlich
TTITLE0=Die Fidelen Moelltaler - Auf dem Heimweg
TTITLE1=Die Fidelen Moelltaler - Beim Bauern am Tauern
TTITLE2=Die Fidelen Moelltaler - Musik ist mein Zuhause
TTITLE3=Die Fidelen Moelltaler - Rosen im Sommerwind
TTITLE4=Die Fidelen Moelltaler - Du bist das Licht
TTITLE5=Die Fidelen Moelltaler - Schwalben im Wind
TTITLE6=Die Fidelen Moelltaler - Trompeten Sehnsucht
TTITLE7=Die Fidelen Moelltaler - In Messina
TTITLE8=Die Fidelen Moelltaler - Beim Musifest
TTITLE9=Die Fidelen Moelltaler - Das ist nicht mehr meine Heimat
TTITLE10=Die Fidelen Moelltaler - Du hast mir so manche Nacht geraubt
TTITLE11=Die Fidelen Moelltaler - Heute gemma zu der Hemma
TTITLE12=Die Fidelen Moelltaler - Meine erste Rose
TTITLE13=Die Fidelen Moelltaler - Polka ist Trumpf
EXTD=YEAR: 2007
EXTT0=
EXTT1=
EXTT2=
EXTT3=
EXTT4=
EXTT5=
EXTT6=
EXTT7=
EXTT8=
EXTT9=
EXTT10=
EXTT11=
EXTT12=
EXTT13=
PLAYORDER=
